<?xml version="1.0" encoding="UTF-8"?>
<svg id="_Слой_1" data-name="Слой_1" xmlns="http://www.w3.org/2000/svg" version="1.1" xmlns:xlink="http://www.w3.org/1999/xlink" viewBox="0 0 100 100">
  <!-- Generator: Adobe Illustrator 29.8.2, SVG Export Plug-In . SVG Version: 2.1.1 Build 3)  -->
  <defs>
    <style>
      .st0 {
        stroke: url(#_Безымянный_градиент_471);
      }

      .st0, .st1, .st2 {
        stroke-miterlimit: 10;
        stroke-width: 5px;
      }

      .st0, .st2 {
        fill: none;
      }

      .st3 {
        fill: url(#_Безымянный_градиент_5656);
      }

      .st4 {
        fill: url(#_Безымянный_градиент_5657);
      }

      .st5 {
        fill: url(#_Безымянный_градиент_5651);
      }

      .st6 {
        fill: url(#_Безымянный_градиент_234);
      }

      .st7 {
        fill: url(#_Безымянный_градиент_5652);
      }

      .st8 {
        fill: url(#_Безымянный_градиент_565);
      }

      .st9 {
        fill: url(#_Безымянный_градиент_5654);
      }

      .st10 {
        fill: url(#_Безымянный_градиент_5655);
      }

      .st11 {
        fill: url(#_Безымянный_градиент_5653);
      }

      .st1 {
        fill: #fff;
        stroke: url(#_Безымянный_градиент_47);
      }

      .st2 {
        stroke: url(#_Безымянный_градиент_472);
      }
    </style>
    <linearGradient id="_Безымянный_градиент_47" data-name="Безымянный градиент 47" x1="25" y1="20.5" x2="25" y2="20.5" gradientUnits="userSpaceOnUse">
      <stop offset="0" stop-color="#fcea10"/>
      <stop offset=".5" stop-color="#e71d73"/>
      <stop offset="1" stop-color="#951b81"/>
    </linearGradient>
    <linearGradient id="_Безымянный_градиент_471" data-name="Безымянный градиент 47" x1="50" y1="79.5" x2="50" y2="90" xlink:href="#_Безымянный_градиент_47"/>
    <linearGradient id="_Безымянный_градиент_472" data-name="Безымянный градиент 47" x1="50" x2="50" y2="10" xlink:href="#_Безымянный_градиент_47"/>
    <linearGradient id="_Безымянный_градиент_234" data-name="Безымянный градиент 234" x1="50" y1="58.24" x2="50" y2="26.04" gradientUnits="userSpaceOnUse">
      <stop offset="0" stop-color="#ffde00"/>
      <stop offset=".25" stop-color="#e6007e"/>
      <stop offset=".5" stop-color="#951b81"/>
      <stop offset=".75" stop-color="#e6007e"/>
      <stop offset="1" stop-color="#fcea10"/>
    </linearGradient>
    <linearGradient id="_Безымянный_градиент_565" data-name="Безымянный градиент 565" x1="24.12" y1="73.15" x2="24.12" y2="63.78" gradientUnits="userSpaceOnUse">
      <stop offset="0" stop-color="#ffde00"/>
      <stop offset=".01" stop-color="#ebc315"/>
      <stop offset=".04" stop-color="#cf9e35"/>
      <stop offset=".06" stop-color="#b77d50"/>
      <stop offset=".09" stop-color="#a36366"/>
      <stop offset=".11" stop-color="#944f76"/>
      <stop offset=".15" stop-color="#8a4082"/>
      <stop offset=".18" stop-color="#833889"/>
      <stop offset=".25" stop-color="#82368c"/>
      <stop offset=".5" stop-color="#e6007e"/>
      <stop offset=".75" stop-color="#a91580"/>
      <stop offset=".81" stop-color="#a9177e"/>
      <stop offset=".85" stop-color="#ad1f7a"/>
      <stop offset=".88" stop-color="#b22e72"/>
      <stop offset=".9" stop-color="#ba4268"/>
      <stop offset=".93" stop-color="#c45c5a"/>
      <stop offset=".95" stop-color="#d17d49"/>
      <stop offset=".97" stop-color="#e0a334"/>
      <stop offset=".99" stop-color="#f1cf1e"/>
      <stop offset="1" stop-color="#fcea10"/>
    </linearGradient>
    <linearGradient id="_Безымянный_градиент_5651" data-name="Безымянный градиент 565" x1="30.72" x2="30.72" y2="66.52" xlink:href="#_Безымянный_градиент_565"/>
    <linearGradient id="_Безымянный_градиент_5652" data-name="Безымянный градиент 565" x1="36.75" y1="73.2" x2="36.75" y2="66.54" xlink:href="#_Безымянный_градиент_565"/>
    <linearGradient id="_Безымянный_градиент_5653" data-name="Безымянный градиент 565" x1="44.85" y1="75.88" x2="44.85" y2="66.54" xlink:href="#_Безымянный_градиент_565"/>
    <linearGradient id="_Безымянный_градиент_5654" data-name="Безымянный градиент 565" x1="52.27" x2="52.27" y2="66.52" xlink:href="#_Безымянный_градиент_565"/>
    <linearGradient id="_Безымянный_градиент_5655" data-name="Безымянный градиент 565" x1="58.3" y1="73.2" x2="58.3" y2="66.54" xlink:href="#_Безымянный_градиент_565"/>
    <linearGradient id="_Безымянный_градиент_5656" data-name="Безымянный градиент 565" x1="68.05" y1="73.16" x2="68.05" y2="66.53" xlink:href="#_Безымянный_градиент_565"/>
    <linearGradient id="_Безымянный_градиент_5657" data-name="Безымянный градиент 565" x1="76.96" y1="73.2" x2="76.96" y2="66.54" xlink:href="#_Безымянный_градиент_565"/>
  </defs>
  <path class="st1" d="M25,20.5"/>
  <path class="st0" d="M75,79.5c0,4.42-3.58,8-8,8h-34c-4.42,0-8-3.58-8-8"/>
  <path class="st2" d="M25,20.5c0-4.42,3.58-8,8-8h34c4.42,0,8,3.58,8,8"/>
  <path class="st6" d="M67.36,42.14c0-1.86-1.28-3.41-3-3.86v-4.38c1.72-.45,3-2,3-3.86,0-2.21-1.79-4-4-4s-4,1.79-4,4c0,.53.11,1.03.29,1.49l-7.35,7.35c-.65-.46-1.44-.74-2.3-.74s-1.6.25-2.24.69l-7.38-7.38c.17-.44.27-.91.27-1.41,0-2.21-1.79-4-4-4s-4,1.79-4,4c0,1.86,1.28,3.41,3,3.86v4.38c-1.72.45-3,2-3,3.86s1.28,3.41,3,3.86v4.38c-1.72.45-3,2-3,3.86,0,2.21,1.79,4,4,4s4-1.79,4-4c0-1.86-1.28-3.41-3-3.86v-4.38c1.72-.45,3-2,3-3.86s-1.28-3.41-3-3.86v-4.38c.58-.15,1.11-.43,1.55-.8l7.25,7.25c-.28.54-.45,1.15-.45,1.8,0,2.21,1.79,4,4,4s4-1.79,4-4c0-.62-.15-1.2-.41-1.72l7.27-7.27c.43.35.94.61,1.49.75v4.38c-1.72.45-3,2-3,3.86s1.28,3.41,3,3.86v4.38c-1.72.45-3,2-3,3.86,0,2.21,1.79,4,4,4s4-1.79,4-4c0-1.86-1.28-3.41-3-3.86v-4.38c1.72-.45,3-2,3-3.86Z"/>
  <g>
    <path class="st8" d="M21.7,73.15c-.18,0-.32-.06-.44-.18s-.18-.27-.18-.44v-8.12c0-.18.06-.33.18-.45.12-.12.27-.17.44-.17h2.4c.6,0,1.13.13,1.6.4.46.26.83.63,1.09,1.1.26.47.39,1.01.39,1.61s-.13,1.1-.39,1.56c-.26.46-.62.81-1.09,1.07s-1,.38-1.6.38h-1.78v2.63c0,.18-.06.32-.17.44-.12.12-.27.18-.45.18ZM22.32,68.75h1.78c.37,0,.69-.08.97-.24.28-.16.5-.38.66-.66s.24-.6.24-.96c0-.38-.08-.72-.24-1.01s-.38-.52-.66-.69c-.28-.17-.6-.25-.97-.25h-1.78v3.82Z"/>
    <path class="st5" d="M29.03,73.15c-.19,0-.34-.05-.44-.15-.1-.1-.16-.25-.16-.45v-5.36c0-.19.05-.34.16-.44.1-.1.25-.16.44-.16s.35.05.45.15c.1.1.15.25.15.45v5.36c0,.19-.05.34-.15.44-.1.1-.25.16-.45.16ZM29.02,69.05c0-.48.12-.91.35-1.29s.55-.68.95-.91c.4-.22.84-.34,1.32-.34s.84.08,1.07.23c.24.16.33.34.27.56-.02.11-.07.2-.14.26-.07.06-.15.1-.23.11-.09.02-.18.01-.29-.01-.51-.1-.97-.11-1.38-.02-.41.09-.73.25-.97.49-.24.24-.35.54-.35.91h-.61Z"/>
    <path class="st7" d="M36.76,73.2c-.65,0-1.22-.14-1.72-.43s-.89-.68-1.17-1.18-.43-1.07-.43-1.72.14-1.23.43-1.73.67-.89,1.17-1.18c.5-.28,1.07-.43,1.72-.43s1.21.14,1.7.43c.5.28.89.68,1.17,1.18.28.5.43,1.08.43,1.73s-.14,1.22-.42,1.72c-.28.5-.67.89-1.16,1.18s-1.07.43-1.72.43ZM36.76,72.12c.42,0,.78-.1,1.1-.29.32-.19.57-.46.75-.79.18-.34.27-.72.27-1.16s-.09-.83-.27-1.17c-.18-.34-.43-.61-.75-.8-.32-.19-.69-.29-1.1-.29s-.78.1-1.1.29c-.32.19-.57.46-.76.8-.18.34-.28.73-.28,1.17s.09.83.28,1.16.44.6.76.79c.32.19.69.29,1.1.29Z"/>
    <path class="st11" d="M44.62,73.2c-.6,0-1.13-.14-1.59-.43s-.82-.68-1.09-1.18c-.26-.5-.4-1.07-.4-1.72s.14-1.23.43-1.73.67-.89,1.17-1.18c.5-.28,1.07-.43,1.72-.43s1.21.14,1.7.43c.5.28.89.68,1.17,1.18.28.5.43,1.08.43,1.73h-.71c0,.65-.12,1.22-.37,1.72-.24.5-.58.89-1,1.18-.42.28-.91.43-1.46.43ZM44.83,75.88c-.57,0-1.1-.11-1.6-.34-.5-.22-.92-.55-1.26-.98-.1-.14-.14-.28-.11-.42.03-.14.11-.26.23-.35.14-.1.29-.13.45-.1.16.03.28.11.38.24.22.27.49.48.82.64s.7.23,1.12.23c.38,0,.74-.09,1.06-.28.32-.18.58-.46.77-.82.19-.36.29-.8.29-1.32v-1.7l.4-1.06.78.25v2.59c0,.63-.14,1.21-.42,1.72-.28.52-.67.93-1.17,1.23-.5.3-1.08.46-1.73.46ZM44.86,72.12c.42,0,.78-.1,1.1-.29.32-.19.57-.46.75-.79.18-.34.27-.72.27-1.16s-.09-.83-.27-1.17c-.18-.34-.43-.61-.75-.8-.32-.19-.69-.29-1.1-.29s-.78.1-1.1.29c-.32.19-.57.46-.76.8-.18.34-.28.73-.28,1.17s.09.83.28,1.16.44.6.76.79c.32.19.69.29,1.1.29Z"/>
    <path class="st9" d="M50.58,73.15c-.19,0-.34-.05-.44-.15-.1-.1-.16-.25-.16-.45v-5.36c0-.19.05-.34.16-.44.1-.1.25-.16.44-.16.2,0,.35.05.45.15.1.1.15.25.15.45v5.36c0,.19-.05.34-.15.44-.1.1-.25.16-.45.16ZM50.57,69.05c0-.48.12-.91.36-1.29.23-.38.55-.68.95-.91s.84-.34,1.32-.34.84.08,1.07.23c.23.16.33.34.27.56-.02.11-.07.2-.14.26-.07.06-.15.1-.23.11-.09.02-.18.01-.29-.01-.51-.1-.97-.11-1.38-.02-.41.09-.73.25-.96.49-.24.24-.35.54-.35.91h-.61Z"/>
    <path class="st10" d="M58.07,73.2c-.58,0-1.11-.15-1.57-.44s-.83-.69-1.1-1.19c-.27-.5-.4-1.07-.4-1.7s.15-1.2.44-1.7c.29-.5.69-.9,1.19-1.19s1.06-.44,1.69-.44,1.18.15,1.68.44.89.69,1.18,1.19c.29.5.44,1.07.44,1.7h-.47c0,.63-.13,1.2-.4,1.7-.27.5-.63.9-1.1,1.19s-.99.44-1.57.44ZM58.31,72.12c.41,0,.77-.1,1.09-.29.32-.2.57-.46.76-.8.18-.34.28-.72.28-1.15s-.09-.82-.28-1.16c-.18-.34-.44-.61-.76-.8-.32-.2-.68-.29-1.09-.29s-.76.1-1.09.29c-.32.2-.58.46-.77.8-.19.34-.28.73-.28,1.16s.09.81.28,1.15c.19.34.44.61.77.8.32.2.69.29,1.09.29ZM61,73.16c-.18,0-.32-.06-.44-.17s-.17-.26-.17-.44v-1.84l.23-1.27,1,.43v2.68c0,.18-.06.32-.17.44-.12.12-.26.17-.44.17Z"/>
    <path class="st3" d="M64.04,73.16c-.18,0-.32-.06-.44-.17s-.17-.26-.17-.44v-5.34c0-.18.06-.33.17-.44s.26-.17.44-.17.33.06.44.17.17.26.17.44v5.34c0,.18-.06.32-.17.44s-.26.17-.44.17ZM68.05,73.16c-.18,0-.32-.06-.44-.17s-.17-.26-.17-.44v-3.43c0-.5-.12-.88-.37-1.12-.25-.24-.57-.37-.97-.37s-.76.14-1.03.43c-.27.29-.41.66-.41,1.1h-.76c0-.52.1-.98.31-1.37.21-.4.5-.71.86-.93.37-.22.79-.34,1.26-.34s.86.1,1.21.3c.35.2.63.49.82.88.2.39.29.86.29,1.41v3.43c0,.18-.06.32-.17.44-.11.12-.26.17-.44.17ZM72.05,73.16c-.18,0-.32-.06-.44-.17s-.17-.26-.17-.44v-3.43c0-.5-.12-.88-.37-1.12-.25-.24-.57-.37-.97-.37s-.76.14-1.03.43c-.27.29-.4.66-.4,1.1h-1c0-.52.11-.98.34-1.37.22-.4.54-.71.94-.93.4-.22.87-.34,1.39-.34.46,0,.86.1,1.21.3.35.2.63.49.82.88.2.39.29.86.29,1.41v3.43c0,.18-.06.32-.17.44-.11.12-.26.17-.44.17Z"/>
    <path class="st4" d="M77.08,73.2c-.56,0-1.08-.09-1.55-.26-.48-.17-.85-.39-1.11-.65-.12-.13-.17-.27-.15-.44.02-.16.1-.3.23-.4.16-.13.32-.18.47-.16.16.02.29.09.4.21.14.15.35.29.65.43.3.13.63.2,1,.2.46,0,.82-.08,1.06-.23.24-.15.37-.35.38-.59,0-.24-.11-.45-.34-.62-.24-.18-.67-.32-1.29-.43-.81-.16-1.39-.4-1.76-.72s-.55-.71-.55-1.18c0-.41.12-.75.36-1.01.24-.27.55-.47.92-.6s.77-.2,1.18-.2c.53,0,1,.08,1.4.25s.73.4.97.7c.11.13.16.26.16.4,0,.14-.08.26-.2.35-.13.09-.28.12-.46.08-.18-.03-.32-.1-.44-.22-.2-.19-.42-.32-.65-.4-.23-.07-.5-.11-.8-.11-.35,0-.65.06-.89.18s-.37.3-.37.53c0,.14.04.27.11.39.08.12.23.22.45.31.22.09.55.18.98.27.6.12,1.07.27,1.42.46.35.18.6.4.75.64.15.24.23.53.23.85,0,.37-.1.7-.29,1s-.48.53-.86.71-.85.26-1.42.26Z"/>
  </g>
</svg>